<svg width="338" height="179" viewBox="0 0 338 179" fill="none" xmlns="http://www.w3.org/2000/svg">
<path d="M40.7576 163C22.5758 157.942 13.4848 146.299 13.4848 128.072L13.4848 113.124C13.4848 102.557 8.9899 97.2744 0 97.2744L0 81.7256C8.78788 81.7256 13.2828 76.743 13.4848 66.7777L13.4848 50.8533C13.4848 41.5892 15.7576 34.1027 20.303 28.394C24.8485 22.6852 31.6667 18.5539 40.7576 16L45 28.0935C41.1616 29.4957 38.2576 31.9494 36.2879 35.4548C34.3182 38.9101 33.2828 43.7174 33.1818 49.8769V65.651C33.1818 76.9683 28.6616 84.9055 19.6212 89.4624C28.6616 94.0695 33.1818 102.057 33.1818 113.424V129.348C33.4343 141.066 37.3737 148.227 45 150.831L40.7576 163Z" fill="#333333"/>
<path d="M297.242 16C315.424 21.0577 324.515 32.7006 324.515 50.9285L324.515 65.8763C324.515 76.4425 329.01 81.7256 338 81.7256L338 97.2744C329.212 97.2744 324.717 102.257 324.515 112.222L324.515 128.147C324.515 137.411 322.242 144.897 317.697 150.606C313.152 156.315 306.333 160.446 297.242 163L293 150.906C296.838 149.504 299.742 147.051 301.712 143.545C303.682 140.09 304.717 135.283 304.818 129.123L304.818 113.349C304.818 102.032 309.338 94.0945 318.379 89.5376C309.338 84.9305 304.818 76.9433 304.818 65.5759L304.818 49.6515C304.566 37.9336 300.626 30.7726 293 28.1686L297.242 16Z" fill="#333333"/>
<path d="M268.876 89.1912C268.876 75.9247 252.295 63.3523 226.872 55.5557C232.739 29.5943 230.131 8.93953 218.642 2.32672C215.994 0.775574 212.898 0.0408191 209.516 0.0408191V9.14363C211.39 9.14363 212.898 9.511 214.161 10.2049C219.702 13.3889 222.105 25.5123 220.231 41.1055C219.783 44.9426 219.05 48.9837 218.153 53.1065C210.168 51.1472 201.45 49.6368 192.283 48.6571C186.783 41.1055 181.079 34.2478 175.334 28.2473C188.616 15.8789 201.083 9.10281 209.557 9.10281V0C198.353 0 183.686 8.00067 168.857 21.8794C154.027 8.08231 139.36 0.16328 128.156 0.16328V9.26608C136.59 9.26608 149.097 16.0013 162.379 28.2881C156.675 34.2886 150.971 41.1055 145.553 48.6571C136.345 49.6368 127.627 51.1472 119.641 53.1473C118.704 49.0653 118.012 45.1058 117.523 41.3096C115.608 25.7164 117.971 13.593 123.471 10.3682C124.693 9.63346 126.282 9.30691 128.156 9.30691V0.204099C124.734 0.204099 121.638 0.938854 118.949 2.49C107.5 9.10281 104.934 29.7168 110.841 55.5965C85.5002 63.4339 69 75.9656 69 89.1912C69 102.458 85.5817 115.03 111.004 122.827C105.137 148.788 107.745 169.443 119.234 176.056C121.882 177.607 124.978 178.342 128.401 178.342C139.604 178.342 154.271 170.341 169.101 156.462C183.931 170.259 198.598 178.178 209.801 178.178C213.224 178.178 216.32 177.443 219.009 175.892C230.457 169.28 233.024 148.666 227.116 122.786C252.376 114.989 268.876 102.417 268.876 89.1912ZM215.831 61.9644C214.324 67.2301 212.45 72.6592 210.331 78.0882C208.661 74.8226 206.909 71.557 204.994 68.2915C203.12 65.0259 201.124 61.8419 199.127 58.7396C204.913 59.5968 210.494 60.6582 215.831 61.9644ZM197.172 105.437C193.994 110.948 190.735 116.173 187.353 121.031C181.283 121.561 175.131 121.847 168.938 121.847C162.786 121.847 156.634 121.561 150.605 121.071C147.223 116.214 143.923 111.03 140.745 105.56C137.649 100.213 134.838 94.7835 132.271 89.3136C134.797 83.8438 137.649 78.3739 140.704 73.0265C143.882 67.5159 147.142 62.2909 150.523 57.4334C156.594 56.9027 162.745 56.617 168.938 56.617C175.09 56.617 181.242 56.9027 187.272 57.3926C190.653 62.2501 193.953 67.4342 197.131 72.9041C200.227 78.2515 203.038 83.6805 205.605 89.1503C203.038 94.6202 200.227 100.09 197.172 105.437ZM210.331 100.131C212.531 105.601 214.405 111.071 215.953 116.377C210.616 117.683 204.994 118.785 199.168 119.643C201.164 116.5 203.161 113.275 205.035 109.968C206.909 106.703 208.661 103.396 210.331 100.131ZM169.02 143.686C165.231 139.767 161.442 135.399 157.694 130.623C161.36 130.786 165.108 130.909 168.897 130.909C172.727 130.909 176.516 130.827 180.223 130.623C176.557 135.399 172.768 139.767 169.02 143.686ZM138.708 119.643C132.923 118.785 127.341 117.724 122.004 116.418C123.512 111.152 125.386 105.723 127.504 100.294C129.175 103.56 130.927 106.825 132.841 110.091C134.756 113.356 136.712 116.54 138.708 119.643ZM168.816 34.6968C172.605 38.6155 176.394 42.9832 180.142 47.7591C176.475 47.5958 172.727 47.4734 168.938 47.4734C165.108 47.4734 161.32 47.555 157.612 47.7591C161.279 42.9832 165.068 38.6155 168.816 34.6968ZM138.667 58.7396C136.671 61.8827 134.675 65.1075 132.801 68.4139C130.927 71.6795 129.175 74.9451 127.504 78.2107C125.304 72.7408 123.43 67.271 121.882 61.9644C127.219 60.699 132.841 59.5968 138.667 58.7396ZM101.797 109.846C87.3743 103.682 78.0445 95.5999 78.0445 89.1912C78.0445 82.7825 87.3743 74.6593 101.797 68.5364C105.3 67.026 109.13 65.679 113.082 64.4136C115.404 72.4142 118.46 80.7415 122.249 89.2728C118.501 97.7633 115.486 106.05 113.204 114.01C109.171 112.744 105.341 111.356 101.797 109.846ZM123.715 168.177C118.175 164.993 115.771 152.87 117.645 137.277C118.093 133.44 118.826 129.399 119.723 125.276C127.708 127.235 136.427 128.745 145.593 129.725C151.093 137.277 156.797 144.135 162.542 150.135C149.26 162.503 136.793 169.28 128.319 169.28C126.486 169.239 124.938 168.871 123.715 168.177ZM220.353 137.073C222.268 152.666 219.905 164.789 214.405 168.014C213.183 168.749 211.594 169.075 209.72 169.075C201.287 169.075 188.779 162.34 175.497 150.053C181.201 144.053 186.905 137.236 192.324 129.684C201.531 128.705 210.25 127.194 218.235 125.194C219.172 129.317 219.905 133.276 220.353 137.073ZM236.039 109.846C232.535 111.356 228.705 112.703 224.754 113.969C222.431 105.968 219.376 97.6408 215.587 89.1095C219.335 80.619 222.35 72.3326 224.631 64.3727C228.665 65.6382 232.494 67.026 236.08 68.5364C250.502 74.7001 259.832 82.7825 259.832 89.1912C259.791 95.5999 250.461 103.723 236.039 109.846Z" fill="#0293FF"/>
<path d="M168.897 107.846C179.18 107.846 187.516 99.4939 187.516 89.1912C187.516 78.8886 179.18 70.5366 168.897 70.5366C158.615 70.5366 150.279 78.8886 150.279 89.1912C150.279 99.4939 158.615 107.846 168.897 107.846Z" fill="#0293FF"/>
</svg>